<?xml version="1.0" encoding="UTF-8"?>
<svg width="901px" height="901px" viewBox="0 0 901 901" version="1.1" xmlns="http://www.w3.org/2000/svg" xmlns:xlink="http://www.w3.org/1999/xlink">
    <!-- Generator: Sketch 50.2 (55047) - http://www.bohemiancoding.com/sketch -->
    <title>Group</title>
    <desc>Created with Sketch.</desc>
    <defs></defs>
    <g id="Page-1" stroke="none" stroke-width="1" fill="none" fill-rule="evenodd">
        <g id="Group" transform="translate(16.000000, 16.000000)">
            <rect id="Rectangle" stroke="#A6A6A6" stroke-width="32" fill="#F8F8F8" x="0" y="0" width="869" height="869" rx="100"></rect>
            <g id="arrows" transform="translate(167.000000, 179.000000)" fill-rule="nonzero" stroke="#5F5F5F" stroke-width="16">
                <path d="M663.024041,224.005537 L303.024041,224.005537 L303.024041,176.005537 C303.024041,154.691537 277.162041,143.925537 262.053041,159.034537 L182.053041,239.034537 C172.681041,248.407537 172.681041,263.603537 182.053041,272.975537 L262.053041,352.975537 C277.081041,368.002537 303.024041,357.442537 303.024041,336.005537 L303.024041,288.005537 L663.024041,288.005537 C676.279041,288.005537 687.024041,277.260537 687.024041,264.005537 L687.024041,248.005537 C687.024041,234.750537 676.279041,224.005537 663.024041,224.005537 Z" id="down-arrow" fill="#5F5F5F" transform="translate(431.024041, 256.000000) rotate(-90.000000) translate(-431.024041, -256.000000) "></path>
                <path d="M336.024041,224.005537 L-23.9759592,224.005537 L-23.9759592,176.005537 C-23.9759592,154.691537 -49.8379592,143.925537 -64.9469592,159.034537 L-144.946959,239.034537 C-154.318959,248.407537 -154.318959,263.603537 -144.946959,272.975537 L-64.9469592,352.975537 C-49.9189592,368.002537 -23.9759592,357.442537 -23.9759592,336.005537 L-23.9759592,288.005537 L336.024041,288.005537 C349.279041,288.005537 360.024041,277.260537 360.024041,264.005537 L360.024041,248.005537 C360.024041,234.750537 349.279041,224.005537 336.024041,224.005537 Z" id="up-arrow" transform="translate(104.024041, 256.000000) scale(1, -1) rotate(-90.000000) translate(-104.024041, -256.000000) "></path>
            </g>
        </g>
    </g>
</svg>