<?xml version="1.0" encoding="UTF-8"?>
<svg width="901px" height="901px" viewBox="0 0 901 901" version="1.1" xmlns="http://www.w3.org/2000/svg" xmlns:xlink="http://www.w3.org/1999/xlink">
    <!-- Generator: Sketch 50.2 (55047) - http://www.bohemiancoding.com/sketch -->
    <title>Group</title>
    <desc>Created with Sketch.</desc>
    <defs></defs>
    <g id="Page-1" stroke="none" stroke-width="1" fill="none" fill-rule="evenodd">
        <g id="Group" transform="translate(16.000000, 16.000000)">
            <rect id="Rectangle" stroke="#A6A6A6" stroke-width="32" fill="#F8F8F8" x="0" y="0" width="869" height="869" rx="100"></rect>
            <path d="M179.021218,282.002714 L179.021218,266.002714 C179.021218,252.747714 189.766218,242.002714 203.021218,242.002714 L563.021218,242.002714 L563.021218,194.002714 C563.021218,172.635714 588.920218,161.960714 603.992218,177.031714 L683.992218,257.031714 C693.364218,266.404714 693.364218,281.600714 683.992218,290.972714 L603.992218,370.972714 C588.977218,385.984714 563.021218,375.458714 563.021218,354.002714 L563.021218,306.002714 L203.021218,306.002714 C189.766218,306.002714 179.021218,295.257714 179.021218,282.002714 Z M667.021218,564.002714 L307.021218,564.002714 L307.021218,516.002714 C307.021218,494.688714 281.159218,483.922714 266.050218,499.031714 L186.050218,579.031714 C176.678218,588.404714 176.678218,603.600714 186.050218,612.972714 L266.050218,692.972714 C281.078218,707.999714 307.021218,697.439714 307.021218,676.002714 L307.021218,628.002714 L667.021218,628.002714 C680.276218,628.002714 691.021218,617.257714 691.021218,604.002714 L691.021218,588.002714 C691.021218,574.747714 680.276218,564.002714 667.021218,564.002714 Z" id="arrows" fill="#5F5F5F" fill-rule="nonzero" transform="translate(435.021218, 435.000000) rotate(-90.000000) translate(-435.021218, -435.000000) "></path>
        </g>
    </g>
</svg>